<mxfile host="Electron" agent="Mozilla/5.0 (Macintosh; Intel Mac OS X 10_15_7) AppleWebKit/537.36 (KHTML, like Gecko) draw.io/25.0.2 Chrome/128.0.6613.186 Electron/32.2.5 Safari/537.36" version="25.0.2">
  <diagram name="第 1 页" id="IvqHyeAGdd7Yr8hoWfXT">
    <mxGraphModel dx="819" dy="488" grid="1" gridSize="10" guides="1" tooltips="1" connect="1" arrows="1" fold="1" page="1" pageScale="1" pageWidth="1169" pageHeight="827" math="0" shadow="0">
      <root>
        <mxCell id="0" />
        <mxCell id="1" parent="0" />
        <mxCell id="Biw7-eiPxBGhHiRIIHcr-265" value="" style="rounded=0;whiteSpace=wrap;html=1;strokeColor=none;fontFamily=Helvetica;fontSize=11;fontColor=default;labelBackgroundColor=default;" parent="1" vertex="1">
          <mxGeometry x="220" y="110" width="510" height="580" as="geometry" />
        </mxCell>
        <mxCell id="Biw7-eiPxBGhHiRIIHcr-21" value="&lt;font style=&quot;font-size: 16px;&quot; face=&quot;Comic Sans MS&quot;&gt;&lt;b&gt;0&lt;/b&gt;&lt;/font&gt;" style="rounded=1;whiteSpace=wrap;html=1;fillColor=#dae8fc;strokeColor=#6c8ebf;sketch=1;curveFitting=1;jiggle=2;" parent="1" vertex="1">
          <mxGeometry x="385" y="250" width="40" height="40" as="geometry" />
        </mxCell>
        <mxCell id="Biw7-eiPxBGhHiRIIHcr-30" value="&lt;b style=&quot;font-family: &amp;quot;Comic Sans MS&amp;quot;; font-size: 16px;&quot;&gt;2&lt;/b&gt;" style="rounded=1;whiteSpace=wrap;html=1;fillColor=#dae8fc;strokeColor=#6c8ebf;sketch=1;curveFitting=1;jiggle=2;" parent="1" vertex="1">
          <mxGeometry x="425" y="250" width="40" height="40" as="geometry" />
        </mxCell>
        <mxCell id="Biw7-eiPxBGhHiRIIHcr-31" value="&lt;b style=&quot;forced-color-adjust: none; color: rgb(0, 0, 0); font-style: normal; font-variant-ligatures: normal; font-variant-caps: normal; letter-spacing: normal; orphans: 2; text-align: center; text-indent: 0px; text-transform: none; widows: 2; word-spacing: 0px; -webkit-text-stroke-width: 0px; white-space: normal; background-color: rgb(251, 251, 251); text-decoration-thickness: initial; text-decoration-style: initial; text-decoration-color: initial; font-family: &amp;quot;Comic Sans MS&amp;quot;; font-size: 16px;&quot;&gt;32&lt;/b&gt;" style="rounded=1;whiteSpace=wrap;html=1;fillColor=#dae8fc;strokeColor=#6c8ebf;sketch=1;curveFitting=1;jiggle=2;" parent="1" vertex="1">
          <mxGeometry x="505" y="250" width="40" height="40" as="geometry" />
        </mxCell>
        <mxCell id="Biw7-eiPxBGhHiRIIHcr-32" value="&lt;b style=&quot;font-family: &amp;quot;Comic Sans MS&amp;quot;; font-size: 16px;&quot;&gt;0&lt;/b&gt;" style="rounded=1;whiteSpace=wrap;html=1;fillColor=#dae8fc;strokeColor=#6c8ebf;sketch=1;curveFitting=1;jiggle=2;" parent="1" vertex="1">
          <mxGeometry x="465" y="250" width="40" height="40" as="geometry" />
        </mxCell>
        <mxCell id="Biw7-eiPxBGhHiRIIHcr-37" style="edgeStyle=orthogonalEdgeStyle;shape=connector;rounded=0;orthogonalLoop=1;jettySize=auto;html=1;exitX=0.5;exitY=1;exitDx=0;exitDy=0;strokeColor=default;strokeWidth=2;align=center;verticalAlign=middle;fontFamily=Helvetica;fontSize=11;fontColor=default;labelBackgroundColor=default;endArrow=diamondThin;endFill=0;" parent="1" target="Biw7-eiPxBGhHiRIIHcr-38" edge="1">
          <mxGeometry relative="1" as="geometry">
            <mxPoint x="405" y="290" as="sourcePoint" />
          </mxGeometry>
        </mxCell>
        <mxCell id="Biw7-eiPxBGhHiRIIHcr-38" value="" style="rounded=1;whiteSpace=wrap;html=1;fillColor=#fff2cc;strokeColor=#d6b656;sketch=1;curveFitting=1;jiggle=2;" parent="1" vertex="1">
          <mxGeometry x="390" y="354" width="30" height="20" as="geometry" />
        </mxCell>
        <mxCell id="Biw7-eiPxBGhHiRIIHcr-39" value="" style="rounded=1;whiteSpace=wrap;html=1;fillColor=#fff2cc;strokeColor=#d6b656;sketch=1;curveFitting=1;jiggle=2;" parent="1" vertex="1">
          <mxGeometry x="390" y="374" width="30" height="20" as="geometry" />
        </mxCell>
        <mxCell id="Biw7-eiPxBGhHiRIIHcr-40" value="" style="rounded=1;whiteSpace=wrap;html=1;fillColor=#fff2cc;strokeColor=#d6b656;sketch=1;curveFitting=1;jiggle=2;" parent="1" vertex="1">
          <mxGeometry x="390" y="394" width="30" height="20" as="geometry" />
        </mxCell>
        <mxCell id="Biw7-eiPxBGhHiRIIHcr-41" value="" style="rounded=1;whiteSpace=wrap;html=1;fillColor=#fff2cc;strokeColor=#d6b656;sketch=1;curveFitting=1;jiggle=2;" parent="1" vertex="1">
          <mxGeometry x="390" y="414" width="30" height="20" as="geometry" />
        </mxCell>
        <mxCell id="Biw7-eiPxBGhHiRIIHcr-42" value="" style="rounded=1;whiteSpace=wrap;html=1;fillColor=#fff2cc;strokeColor=#d6b656;sketch=1;curveFitting=1;jiggle=2;" parent="1" vertex="1">
          <mxGeometry x="390" y="434" width="30" height="20" as="geometry" />
        </mxCell>
        <mxCell id="Biw7-eiPxBGhHiRIIHcr-43" value="" style="rounded=1;whiteSpace=wrap;html=1;fillColor=#fff2cc;strokeColor=#d6b656;sketch=1;curveFitting=1;jiggle=2;" parent="1" vertex="1">
          <mxGeometry x="390" y="454" width="30" height="20" as="geometry" />
        </mxCell>
        <mxCell id="Biw7-eiPxBGhHiRIIHcr-44" value="" style="rounded=1;whiteSpace=wrap;html=1;fillColor=#fff2cc;strokeColor=#d6b656;sketch=1;curveFitting=1;jiggle=2;" parent="1" vertex="1">
          <mxGeometry x="390" y="474" width="30" height="20" as="geometry" />
        </mxCell>
        <mxCell id="Biw7-eiPxBGhHiRIIHcr-45" value="" style="rounded=1;whiteSpace=wrap;html=1;fillColor=#fff2cc;strokeColor=#d6b656;sketch=1;curveFitting=1;jiggle=2;" parent="1" vertex="1">
          <mxGeometry x="390" y="494" width="30" height="20" as="geometry" />
        </mxCell>
        <mxCell id="Biw7-eiPxBGhHiRIIHcr-46" value="" style="rounded=1;whiteSpace=wrap;html=1;fillColor=#fff2cc;strokeColor=#d6b656;sketch=1;curveFitting=1;jiggle=2;" parent="1" vertex="1">
          <mxGeometry x="390" y="514" width="30" height="20" as="geometry" />
        </mxCell>
        <mxCell id="Biw7-eiPxBGhHiRIIHcr-47" value="" style="rounded=1;whiteSpace=wrap;html=1;fillColor=#fff2cc;strokeColor=#d6b656;sketch=1;curveFitting=1;jiggle=2;" parent="1" vertex="1">
          <mxGeometry x="390" y="534" width="30" height="20" as="geometry" />
        </mxCell>
        <mxCell id="Biw7-eiPxBGhHiRIIHcr-48" value="" style="rounded=1;whiteSpace=wrap;html=1;fillColor=#fff2cc;strokeColor=#d6b656;sketch=1;curveFitting=1;jiggle=2;" parent="1" vertex="1">
          <mxGeometry x="390" y="554" width="30" height="20" as="geometry" />
        </mxCell>
        <mxCell id="Biw7-eiPxBGhHiRIIHcr-49" value="" style="rounded=1;whiteSpace=wrap;html=1;fillColor=#fff2cc;strokeColor=#d6b656;sketch=1;curveFitting=1;jiggle=2;" parent="1" vertex="1">
          <mxGeometry x="390" y="574" width="30" height="20" as="geometry" />
        </mxCell>
        <mxCell id="Biw7-eiPxBGhHiRIIHcr-50" value="" style="rounded=1;whiteSpace=wrap;html=1;fillColor=#fff2cc;strokeColor=#d6b656;sketch=1;curveFitting=1;jiggle=2;" parent="1" vertex="1">
          <mxGeometry x="390" y="594" width="30" height="20" as="geometry" />
        </mxCell>
        <mxCell id="Biw7-eiPxBGhHiRIIHcr-51" value="" style="rounded=1;whiteSpace=wrap;html=1;fillColor=#fff2cc;strokeColor=#d6b656;sketch=1;curveFitting=1;jiggle=2;" parent="1" vertex="1">
          <mxGeometry x="390" y="614" width="30" height="20" as="geometry" />
        </mxCell>
        <mxCell id="Biw7-eiPxBGhHiRIIHcr-52" value="" style="rounded=1;whiteSpace=wrap;html=1;fillColor=#fff2cc;strokeColor=#d6b656;sketch=1;curveFitting=1;jiggle=2;" parent="1" vertex="1">
          <mxGeometry x="390" y="634" width="30" height="20" as="geometry" />
        </mxCell>
        <mxCell id="Biw7-eiPxBGhHiRIIHcr-53" value="" style="rounded=1;whiteSpace=wrap;html=1;fillColor=#fff2cc;strokeColor=#d6b656;sketch=1;curveFitting=1;jiggle=2;" parent="1" vertex="1">
          <mxGeometry x="390" y="654" width="30" height="20" as="geometry" />
        </mxCell>
        <mxCell id="Biw7-eiPxBGhHiRIIHcr-54" style="edgeStyle=orthogonalEdgeStyle;shape=connector;rounded=0;orthogonalLoop=1;jettySize=auto;html=1;exitX=0.5;exitY=1;exitDx=0;exitDy=0;strokeColor=default;strokeWidth=2;align=center;verticalAlign=middle;fontFamily=Helvetica;fontSize=11;fontColor=default;labelBackgroundColor=default;endArrow=diamondThin;endFill=0;" parent="1" target="Biw7-eiPxBGhHiRIIHcr-55" edge="1">
          <mxGeometry relative="1" as="geometry">
            <mxPoint x="445" y="290" as="sourcePoint" />
          </mxGeometry>
        </mxCell>
        <mxCell id="Biw7-eiPxBGhHiRIIHcr-55" value="&lt;span style=&quot;font-family: &amp;quot;Comic Sans MS&amp;quot;;&quot;&gt;2&lt;/span&gt;" style="rounded=1;whiteSpace=wrap;html=1;fillColor=#fff2cc;strokeColor=#d6b656;sketch=1;curveFitting=1;jiggle=2;" parent="1" vertex="1">
          <mxGeometry x="430" y="354" width="30" height="20" as="geometry" />
        </mxCell>
        <mxCell id="Biw7-eiPxBGhHiRIIHcr-56" value="" style="rounded=1;whiteSpace=wrap;html=1;fillColor=#fff2cc;strokeColor=#d6b656;sketch=1;curveFitting=1;jiggle=2;" parent="1" vertex="1">
          <mxGeometry x="430" y="374" width="30" height="20" as="geometry" />
        </mxCell>
        <mxCell id="Biw7-eiPxBGhHiRIIHcr-57" value="" style="rounded=1;whiteSpace=wrap;html=1;fillColor=#fff2cc;strokeColor=#d6b656;sketch=1;curveFitting=1;jiggle=2;" parent="1" vertex="1">
          <mxGeometry x="430" y="394" width="30" height="20" as="geometry" />
        </mxCell>
        <mxCell id="Biw7-eiPxBGhHiRIIHcr-58" value="" style="rounded=1;whiteSpace=wrap;html=1;fillColor=#fff2cc;strokeColor=#d6b656;sketch=1;curveFitting=1;jiggle=2;" parent="1" vertex="1">
          <mxGeometry x="430" y="414" width="30" height="20" as="geometry" />
        </mxCell>
        <mxCell id="Biw7-eiPxBGhHiRIIHcr-59" value="" style="rounded=1;whiteSpace=wrap;html=1;fillColor=#fff2cc;strokeColor=#d6b656;sketch=1;curveFitting=1;jiggle=2;" parent="1" vertex="1">
          <mxGeometry x="430" y="434" width="30" height="20" as="geometry" />
        </mxCell>
        <mxCell id="Biw7-eiPxBGhHiRIIHcr-60" value="" style="rounded=1;whiteSpace=wrap;html=1;fillColor=#fff2cc;strokeColor=#d6b656;sketch=1;curveFitting=1;jiggle=2;" parent="1" vertex="1">
          <mxGeometry x="430" y="454" width="30" height="20" as="geometry" />
        </mxCell>
        <mxCell id="Biw7-eiPxBGhHiRIIHcr-61" value="" style="rounded=1;whiteSpace=wrap;html=1;fillColor=#fff2cc;strokeColor=#d6b656;sketch=1;curveFitting=1;jiggle=2;" parent="1" vertex="1">
          <mxGeometry x="430" y="474" width="30" height="20" as="geometry" />
        </mxCell>
        <mxCell id="Biw7-eiPxBGhHiRIIHcr-62" value="" style="rounded=1;whiteSpace=wrap;html=1;fillColor=#fff2cc;strokeColor=#d6b656;sketch=1;curveFitting=1;jiggle=2;" parent="1" vertex="1">
          <mxGeometry x="430" y="494" width="30" height="20" as="geometry" />
        </mxCell>
        <mxCell id="Biw7-eiPxBGhHiRIIHcr-63" value="" style="rounded=1;whiteSpace=wrap;html=1;fillColor=#fff2cc;strokeColor=#d6b656;sketch=1;curveFitting=1;jiggle=2;" parent="1" vertex="1">
          <mxGeometry x="430" y="514" width="30" height="20" as="geometry" />
        </mxCell>
        <mxCell id="Biw7-eiPxBGhHiRIIHcr-64" value="" style="rounded=1;whiteSpace=wrap;html=1;fillColor=#fff2cc;strokeColor=#d6b656;sketch=1;curveFitting=1;jiggle=2;" parent="1" vertex="1">
          <mxGeometry x="430" y="534" width="30" height="20" as="geometry" />
        </mxCell>
        <mxCell id="Biw7-eiPxBGhHiRIIHcr-65" value="" style="rounded=1;whiteSpace=wrap;html=1;fillColor=#fff2cc;strokeColor=#d6b656;sketch=1;curveFitting=1;jiggle=2;" parent="1" vertex="1">
          <mxGeometry x="430" y="554" width="30" height="20" as="geometry" />
        </mxCell>
        <mxCell id="Biw7-eiPxBGhHiRIIHcr-66" value="" style="rounded=1;whiteSpace=wrap;html=1;fillColor=#fff2cc;strokeColor=#d6b656;sketch=1;curveFitting=1;jiggle=2;" parent="1" vertex="1">
          <mxGeometry x="430" y="574" width="30" height="20" as="geometry" />
        </mxCell>
        <mxCell id="Biw7-eiPxBGhHiRIIHcr-67" value="" style="rounded=1;whiteSpace=wrap;html=1;fillColor=#fff2cc;strokeColor=#d6b656;sketch=1;curveFitting=1;jiggle=2;" parent="1" vertex="1">
          <mxGeometry x="430" y="594" width="30" height="20" as="geometry" />
        </mxCell>
        <mxCell id="Biw7-eiPxBGhHiRIIHcr-68" value="" style="rounded=1;whiteSpace=wrap;html=1;fillColor=#fff2cc;strokeColor=#d6b656;sketch=1;curveFitting=1;jiggle=2;" parent="1" vertex="1">
          <mxGeometry x="430" y="614" width="30" height="20" as="geometry" />
        </mxCell>
        <mxCell id="Biw7-eiPxBGhHiRIIHcr-69" value="" style="rounded=1;whiteSpace=wrap;html=1;fillColor=#fff2cc;strokeColor=#d6b656;sketch=1;curveFitting=1;jiggle=2;" parent="1" vertex="1">
          <mxGeometry x="430" y="634" width="30" height="20" as="geometry" />
        </mxCell>
        <mxCell id="Biw7-eiPxBGhHiRIIHcr-70" value="" style="rounded=1;whiteSpace=wrap;html=1;fillColor=#fff2cc;strokeColor=#d6b656;sketch=1;curveFitting=1;jiggle=2;" parent="1" vertex="1">
          <mxGeometry x="430" y="654" width="30" height="20" as="geometry" />
        </mxCell>
        <mxCell id="Biw7-eiPxBGhHiRIIHcr-72" style="edgeStyle=orthogonalEdgeStyle;shape=connector;rounded=0;orthogonalLoop=1;jettySize=auto;html=1;exitX=0.5;exitY=1;exitDx=0;exitDy=0;strokeColor=default;strokeWidth=2;align=center;verticalAlign=middle;fontFamily=Helvetica;fontSize=11;fontColor=default;labelBackgroundColor=default;endArrow=diamondThin;endFill=0;" parent="1" target="Biw7-eiPxBGhHiRIIHcr-73" edge="1">
          <mxGeometry relative="1" as="geometry">
            <mxPoint x="485" y="290.5" as="sourcePoint" />
          </mxGeometry>
        </mxCell>
        <mxCell id="Biw7-eiPxBGhHiRIIHcr-73" value="" style="rounded=1;whiteSpace=wrap;html=1;fillColor=#fff2cc;strokeColor=#d6b656;sketch=1;curveFitting=1;jiggle=2;" parent="1" vertex="1">
          <mxGeometry x="470" y="354.5" width="30" height="20" as="geometry" />
        </mxCell>
        <mxCell id="Biw7-eiPxBGhHiRIIHcr-74" value="" style="rounded=1;whiteSpace=wrap;html=1;fillColor=#fff2cc;strokeColor=#d6b656;sketch=1;curveFitting=1;jiggle=2;" parent="1" vertex="1">
          <mxGeometry x="470" y="374.5" width="30" height="20" as="geometry" />
        </mxCell>
        <mxCell id="Biw7-eiPxBGhHiRIIHcr-75" value="" style="rounded=1;whiteSpace=wrap;html=1;fillColor=#fff2cc;strokeColor=#d6b656;sketch=1;curveFitting=1;jiggle=2;" parent="1" vertex="1">
          <mxGeometry x="470" y="394.5" width="30" height="20" as="geometry" />
        </mxCell>
        <mxCell id="Biw7-eiPxBGhHiRIIHcr-76" value="" style="rounded=1;whiteSpace=wrap;html=1;fillColor=#fff2cc;strokeColor=#d6b656;sketch=1;curveFitting=1;jiggle=2;" parent="1" vertex="1">
          <mxGeometry x="470" y="414.5" width="30" height="20" as="geometry" />
        </mxCell>
        <mxCell id="Biw7-eiPxBGhHiRIIHcr-77" value="" style="rounded=1;whiteSpace=wrap;html=1;fillColor=#fff2cc;strokeColor=#d6b656;sketch=1;curveFitting=1;jiggle=2;" parent="1" vertex="1">
          <mxGeometry x="470" y="434.5" width="30" height="20" as="geometry" />
        </mxCell>
        <mxCell id="Biw7-eiPxBGhHiRIIHcr-78" value="" style="rounded=1;whiteSpace=wrap;html=1;fillColor=#fff2cc;strokeColor=#d6b656;sketch=1;curveFitting=1;jiggle=2;" parent="1" vertex="1">
          <mxGeometry x="470" y="454.5" width="30" height="20" as="geometry" />
        </mxCell>
        <mxCell id="Biw7-eiPxBGhHiRIIHcr-79" value="" style="rounded=1;whiteSpace=wrap;html=1;fillColor=#fff2cc;strokeColor=#d6b656;sketch=1;curveFitting=1;jiggle=2;" parent="1" vertex="1">
          <mxGeometry x="470" y="474.5" width="30" height="20" as="geometry" />
        </mxCell>
        <mxCell id="Biw7-eiPxBGhHiRIIHcr-80" value="" style="rounded=1;whiteSpace=wrap;html=1;fillColor=#fff2cc;strokeColor=#d6b656;sketch=1;curveFitting=1;jiggle=2;" parent="1" vertex="1">
          <mxGeometry x="470" y="494.5" width="30" height="20" as="geometry" />
        </mxCell>
        <mxCell id="Biw7-eiPxBGhHiRIIHcr-81" value="" style="rounded=1;whiteSpace=wrap;html=1;fillColor=#fff2cc;strokeColor=#d6b656;sketch=1;curveFitting=1;jiggle=2;" parent="1" vertex="1">
          <mxGeometry x="470" y="514.5" width="30" height="20" as="geometry" />
        </mxCell>
        <mxCell id="Biw7-eiPxBGhHiRIIHcr-82" value="" style="rounded=1;whiteSpace=wrap;html=1;fillColor=#fff2cc;strokeColor=#d6b656;sketch=1;curveFitting=1;jiggle=2;" parent="1" vertex="1">
          <mxGeometry x="470" y="534.5" width="30" height="20" as="geometry" />
        </mxCell>
        <mxCell id="Biw7-eiPxBGhHiRIIHcr-83" value="" style="rounded=1;whiteSpace=wrap;html=1;fillColor=#fff2cc;strokeColor=#d6b656;sketch=1;curveFitting=1;jiggle=2;" parent="1" vertex="1">
          <mxGeometry x="470" y="554.5" width="30" height="20" as="geometry" />
        </mxCell>
        <mxCell id="Biw7-eiPxBGhHiRIIHcr-84" value="" style="rounded=1;whiteSpace=wrap;html=1;fillColor=#fff2cc;strokeColor=#d6b656;sketch=1;curveFitting=1;jiggle=2;" parent="1" vertex="1">
          <mxGeometry x="470" y="574.5" width="30" height="20" as="geometry" />
        </mxCell>
        <mxCell id="Biw7-eiPxBGhHiRIIHcr-85" value="" style="rounded=1;whiteSpace=wrap;html=1;fillColor=#fff2cc;strokeColor=#d6b656;sketch=1;curveFitting=1;jiggle=2;" parent="1" vertex="1">
          <mxGeometry x="470" y="594.5" width="30" height="20" as="geometry" />
        </mxCell>
        <mxCell id="Biw7-eiPxBGhHiRIIHcr-86" value="" style="rounded=1;whiteSpace=wrap;html=1;fillColor=#fff2cc;strokeColor=#d6b656;sketch=1;curveFitting=1;jiggle=2;" parent="1" vertex="1">
          <mxGeometry x="470" y="614.5" width="30" height="20" as="geometry" />
        </mxCell>
        <mxCell id="Biw7-eiPxBGhHiRIIHcr-87" value="" style="rounded=1;whiteSpace=wrap;html=1;fillColor=#fff2cc;strokeColor=#d6b656;sketch=1;curveFitting=1;jiggle=2;" parent="1" vertex="1">
          <mxGeometry x="470" y="634.5" width="30" height="20" as="geometry" />
        </mxCell>
        <mxCell id="Biw7-eiPxBGhHiRIIHcr-88" value="" style="rounded=1;whiteSpace=wrap;html=1;fillColor=#fff2cc;strokeColor=#d6b656;sketch=1;curveFitting=1;jiggle=2;" parent="1" vertex="1">
          <mxGeometry x="470" y="654.5" width="30" height="20" as="geometry" />
        </mxCell>
        <mxCell id="Biw7-eiPxBGhHiRIIHcr-89" style="edgeStyle=orthogonalEdgeStyle;shape=connector;rounded=0;orthogonalLoop=1;jettySize=auto;html=1;exitX=0.5;exitY=1;exitDx=0;exitDy=0;strokeColor=default;strokeWidth=2;align=center;verticalAlign=middle;fontFamily=Helvetica;fontSize=11;fontColor=default;labelBackgroundColor=default;endArrow=diamondThin;endFill=0;" parent="1" target="Biw7-eiPxBGhHiRIIHcr-90" edge="1">
          <mxGeometry relative="1" as="geometry">
            <mxPoint x="525" y="290.5" as="sourcePoint" />
          </mxGeometry>
        </mxCell>
        <mxCell id="Biw7-eiPxBGhHiRIIHcr-90" value="" style="rounded=1;whiteSpace=wrap;html=1;fillColor=#fff2cc;strokeColor=#d6b656;sketch=1;curveFitting=1;jiggle=2;" parent="1" vertex="1">
          <mxGeometry x="510" y="354.5" width="30" height="20" as="geometry" />
        </mxCell>
        <mxCell id="Biw7-eiPxBGhHiRIIHcr-91" value="&lt;meta charset=&quot;utf-8&quot;&gt;&lt;span style=&quot;color: rgb(0, 0, 0); font-family: &amp;quot;Comic Sans MS&amp;quot;; font-size: 12px; font-style: normal; font-variant-ligatures: normal; font-variant-caps: normal; font-weight: 400; letter-spacing: normal; orphans: 2; text-align: center; text-indent: 0px; text-transform: none; widows: 2; word-spacing: 0px; -webkit-text-stroke-width: 0px; white-space: normal; background-color: rgb(251, 251, 251); text-decoration-thickness: initial; text-decoration-style: initial; text-decoration-color: initial; display: inline !important; float: none;&quot;&gt;2&lt;/span&gt;" style="rounded=1;whiteSpace=wrap;html=1;fillColor=#fff2cc;strokeColor=#d6b656;sketch=1;curveFitting=1;jiggle=2;" parent="1" vertex="1">
          <mxGeometry x="510" y="374.5" width="30" height="20" as="geometry" />
        </mxCell>
        <mxCell id="Biw7-eiPxBGhHiRIIHcr-92" value="" style="rounded=1;whiteSpace=wrap;html=1;fillColor=#fff2cc;strokeColor=#d6b656;sketch=1;curveFitting=1;jiggle=2;" parent="1" vertex="1">
          <mxGeometry x="510" y="394.5" width="30" height="20" as="geometry" />
        </mxCell>
        <mxCell id="Biw7-eiPxBGhHiRIIHcr-93" value="" style="rounded=1;whiteSpace=wrap;html=1;fillColor=#fff2cc;strokeColor=#d6b656;sketch=1;curveFitting=1;jiggle=2;" parent="1" vertex="1">
          <mxGeometry x="510" y="414.5" width="30" height="20" as="geometry" />
        </mxCell>
        <mxCell id="Biw7-eiPxBGhHiRIIHcr-94" value="" style="rounded=1;whiteSpace=wrap;html=1;fillColor=#fff2cc;strokeColor=#d6b656;sketch=1;curveFitting=1;jiggle=2;" parent="1" vertex="1">
          <mxGeometry x="510" y="434.5" width="30" height="20" as="geometry" />
        </mxCell>
        <mxCell id="Biw7-eiPxBGhHiRIIHcr-95" value="" style="rounded=1;whiteSpace=wrap;html=1;fillColor=#fff2cc;strokeColor=#d6b656;sketch=1;curveFitting=1;jiggle=2;" parent="1" vertex="1">
          <mxGeometry x="510" y="454.5" width="30" height="20" as="geometry" />
        </mxCell>
        <mxCell id="Biw7-eiPxBGhHiRIIHcr-96" value="" style="rounded=1;whiteSpace=wrap;html=1;fillColor=#fff2cc;strokeColor=#d6b656;sketch=1;curveFitting=1;jiggle=2;" parent="1" vertex="1">
          <mxGeometry x="510" y="474.5" width="30" height="20" as="geometry" />
        </mxCell>
        <mxCell id="Biw7-eiPxBGhHiRIIHcr-97" value="" style="rounded=1;whiteSpace=wrap;html=1;fillColor=#fff2cc;strokeColor=#d6b656;sketch=1;curveFitting=1;jiggle=2;" parent="1" vertex="1">
          <mxGeometry x="510" y="494.5" width="30" height="20" as="geometry" />
        </mxCell>
        <mxCell id="Biw7-eiPxBGhHiRIIHcr-98" value="" style="rounded=1;whiteSpace=wrap;html=1;fillColor=#fff2cc;strokeColor=#d6b656;sketch=1;curveFitting=1;jiggle=2;" parent="1" vertex="1">
          <mxGeometry x="510" y="514.5" width="30" height="20" as="geometry" />
        </mxCell>
        <mxCell id="Biw7-eiPxBGhHiRIIHcr-99" value="" style="rounded=1;whiteSpace=wrap;html=1;fillColor=#fff2cc;strokeColor=#d6b656;sketch=1;curveFitting=1;jiggle=2;" parent="1" vertex="1">
          <mxGeometry x="510" y="534.5" width="30" height="20" as="geometry" />
        </mxCell>
        <mxCell id="Biw7-eiPxBGhHiRIIHcr-100" value="" style="rounded=1;whiteSpace=wrap;html=1;fillColor=#fff2cc;strokeColor=#d6b656;sketch=1;curveFitting=1;jiggle=2;" parent="1" vertex="1">
          <mxGeometry x="510" y="554.5" width="30" height="20" as="geometry" />
        </mxCell>
        <mxCell id="Biw7-eiPxBGhHiRIIHcr-101" value="" style="rounded=1;whiteSpace=wrap;html=1;fillColor=#fff2cc;strokeColor=#d6b656;sketch=1;curveFitting=1;jiggle=2;" parent="1" vertex="1">
          <mxGeometry x="510" y="574.5" width="30" height="20" as="geometry" />
        </mxCell>
        <mxCell id="Biw7-eiPxBGhHiRIIHcr-102" value="" style="rounded=1;whiteSpace=wrap;html=1;fillColor=#fff2cc;strokeColor=#d6b656;sketch=1;curveFitting=1;jiggle=2;" parent="1" vertex="1">
          <mxGeometry x="510" y="594.5" width="30" height="20" as="geometry" />
        </mxCell>
        <mxCell id="Biw7-eiPxBGhHiRIIHcr-103" value="" style="rounded=1;whiteSpace=wrap;html=1;fillColor=#fff2cc;strokeColor=#d6b656;sketch=1;curveFitting=1;jiggle=2;" parent="1" vertex="1">
          <mxGeometry x="510" y="614.5" width="30" height="20" as="geometry" />
        </mxCell>
        <mxCell id="Biw7-eiPxBGhHiRIIHcr-104" value="" style="rounded=1;whiteSpace=wrap;html=1;fillColor=#fff2cc;strokeColor=#d6b656;sketch=1;curveFitting=1;jiggle=2;" parent="1" vertex="1">
          <mxGeometry x="510" y="634.5" width="30" height="20" as="geometry" />
        </mxCell>
        <mxCell id="Biw7-eiPxBGhHiRIIHcr-105" value="" style="rounded=1;whiteSpace=wrap;html=1;fillColor=#fff2cc;strokeColor=#d6b656;sketch=1;curveFitting=1;jiggle=2;" parent="1" vertex="1">
          <mxGeometry x="510" y="654.5" width="30" height="20" as="geometry" />
        </mxCell>
        <mxCell id="Biw7-eiPxBGhHiRIIHcr-174" value="&lt;b style=&quot;font-family: &amp;quot;Comic Sans MS&amp;quot;; font-size: 16px;&quot;&gt;0&lt;/b&gt;" style="rounded=1;whiteSpace=wrap;html=1;fillColor=#dae8fc;strokeColor=#6c8ebf;sketch=1;curveFitting=1;jiggle=2;" parent="1" vertex="1">
          <mxGeometry x="545" y="250.75" width="40" height="40" as="geometry" />
        </mxCell>
        <mxCell id="Biw7-eiPxBGhHiRIIHcr-175" value="&lt;b style=&quot;forced-color-adjust: none; color: rgb(0, 0, 0); font-style: normal; font-variant-ligatures: normal; font-variant-caps: normal; letter-spacing: normal; orphans: 2; text-align: center; text-indent: 0px; text-transform: none; widows: 2; word-spacing: 0px; -webkit-text-stroke-width: 0px; white-space: normal; background-color: rgb(251, 251, 251); text-decoration-thickness: initial; text-decoration-style: initial; text-decoration-color: initial; font-family: &amp;quot;Comic Sans MS&amp;quot;; font-size: 16px;&quot;&gt;2&lt;/b&gt;" style="rounded=1;whiteSpace=wrap;html=1;fillColor=#dae8fc;strokeColor=#6c8ebf;sketch=1;curveFitting=1;jiggle=2;" parent="1" vertex="1">
          <mxGeometry x="585" y="250.75" width="40" height="40" as="geometry" />
        </mxCell>
        <mxCell id="Biw7-eiPxBGhHiRIIHcr-176" value="&lt;b style=&quot;forced-color-adjust: none; color: rgb(0, 0, 0); font-style: normal; font-variant-ligatures: normal; font-variant-caps: normal; letter-spacing: normal; orphans: 2; text-align: center; text-indent: 0px; text-transform: none; widows: 2; word-spacing: 0px; -webkit-text-stroke-width: 0px; white-space: normal; text-decoration-thickness: initial; text-decoration-style: initial; text-decoration-color: initial; background-color: rgb(251, 251, 251); font-family: &amp;quot;Comic Sans MS&amp;quot;; font-size: 16px;&quot;&gt;512&lt;/b&gt;" style="rounded=1;whiteSpace=wrap;html=1;fillColor=#dae8fc;strokeColor=#6c8ebf;sketch=1;curveFitting=1;jiggle=2;" parent="1" vertex="1">
          <mxGeometry x="665" y="250.75" width="40" height="40" as="geometry" />
        </mxCell>
        <mxCell id="Biw7-eiPxBGhHiRIIHcr-177" value="&lt;b style=&quot;font-family: &amp;quot;Comic Sans MS&amp;quot;; font-size: 16px;&quot;&gt;0&lt;/b&gt;" style="rounded=1;whiteSpace=wrap;html=1;fillColor=#dae8fc;strokeColor=#6c8ebf;sketch=1;curveFitting=1;jiggle=2;" parent="1" vertex="1">
          <mxGeometry x="625" y="250.75" width="40" height="40" as="geometry" />
        </mxCell>
        <mxCell id="Biw7-eiPxBGhHiRIIHcr-178" style="edgeStyle=orthogonalEdgeStyle;shape=connector;rounded=0;orthogonalLoop=1;jettySize=auto;html=1;exitX=0.5;exitY=1;exitDx=0;exitDy=0;strokeColor=default;strokeWidth=2;align=center;verticalAlign=middle;fontFamily=Helvetica;fontSize=11;fontColor=default;labelBackgroundColor=default;endArrow=diamondThin;endFill=0;" parent="1" target="Biw7-eiPxBGhHiRIIHcr-179" edge="1">
          <mxGeometry relative="1" as="geometry">
            <mxPoint x="565" y="290.75" as="sourcePoint" />
          </mxGeometry>
        </mxCell>
        <mxCell id="Biw7-eiPxBGhHiRIIHcr-179" value="" style="rounded=1;whiteSpace=wrap;html=1;fillColor=#fff2cc;strokeColor=#d6b656;sketch=1;curveFitting=1;jiggle=2;" parent="1" vertex="1">
          <mxGeometry x="550" y="354.75" width="30" height="20" as="geometry" />
        </mxCell>
        <mxCell id="Biw7-eiPxBGhHiRIIHcr-180" value="" style="rounded=1;whiteSpace=wrap;html=1;fillColor=#fff2cc;strokeColor=#d6b656;sketch=1;curveFitting=1;jiggle=2;" parent="1" vertex="1">
          <mxGeometry x="550" y="374.75" width="30" height="20" as="geometry" />
        </mxCell>
        <mxCell id="Biw7-eiPxBGhHiRIIHcr-181" value="" style="rounded=1;whiteSpace=wrap;html=1;fillColor=#fff2cc;strokeColor=#d6b656;sketch=1;curveFitting=1;jiggle=2;" parent="1" vertex="1">
          <mxGeometry x="550" y="394.75" width="30" height="20" as="geometry" />
        </mxCell>
        <mxCell id="Biw7-eiPxBGhHiRIIHcr-182" value="" style="rounded=1;whiteSpace=wrap;html=1;fillColor=#fff2cc;strokeColor=#d6b656;sketch=1;curveFitting=1;jiggle=2;" parent="1" vertex="1">
          <mxGeometry x="550" y="414.75" width="30" height="20" as="geometry" />
        </mxCell>
        <mxCell id="Biw7-eiPxBGhHiRIIHcr-183" value="" style="rounded=1;whiteSpace=wrap;html=1;fillColor=#fff2cc;strokeColor=#d6b656;sketch=1;curveFitting=1;jiggle=2;" parent="1" vertex="1">
          <mxGeometry x="550" y="434.75" width="30" height="20" as="geometry" />
        </mxCell>
        <mxCell id="Biw7-eiPxBGhHiRIIHcr-184" value="" style="rounded=1;whiteSpace=wrap;html=1;fillColor=#fff2cc;strokeColor=#d6b656;sketch=1;curveFitting=1;jiggle=2;" parent="1" vertex="1">
          <mxGeometry x="550" y="454.75" width="30" height="20" as="geometry" />
        </mxCell>
        <mxCell id="Biw7-eiPxBGhHiRIIHcr-185" value="" style="rounded=1;whiteSpace=wrap;html=1;fillColor=#fff2cc;strokeColor=#d6b656;sketch=1;curveFitting=1;jiggle=2;" parent="1" vertex="1">
          <mxGeometry x="550" y="474.75" width="30" height="20" as="geometry" />
        </mxCell>
        <mxCell id="Biw7-eiPxBGhHiRIIHcr-186" value="" style="rounded=1;whiteSpace=wrap;html=1;fillColor=#fff2cc;strokeColor=#d6b656;sketch=1;curveFitting=1;jiggle=2;" parent="1" vertex="1">
          <mxGeometry x="550" y="494.75" width="30" height="20" as="geometry" />
        </mxCell>
        <mxCell id="Biw7-eiPxBGhHiRIIHcr-187" value="" style="rounded=1;whiteSpace=wrap;html=1;fillColor=#fff2cc;strokeColor=#d6b656;sketch=1;curveFitting=1;jiggle=2;" parent="1" vertex="1">
          <mxGeometry x="550" y="514.75" width="30" height="20" as="geometry" />
        </mxCell>
        <mxCell id="Biw7-eiPxBGhHiRIIHcr-188" value="" style="rounded=1;whiteSpace=wrap;html=1;fillColor=#fff2cc;strokeColor=#d6b656;sketch=1;curveFitting=1;jiggle=2;" parent="1" vertex="1">
          <mxGeometry x="550" y="534.75" width="30" height="20" as="geometry" />
        </mxCell>
        <mxCell id="Biw7-eiPxBGhHiRIIHcr-189" value="" style="rounded=1;whiteSpace=wrap;html=1;fillColor=#fff2cc;strokeColor=#d6b656;sketch=1;curveFitting=1;jiggle=2;" parent="1" vertex="1">
          <mxGeometry x="550" y="554.75" width="30" height="20" as="geometry" />
        </mxCell>
        <mxCell id="Biw7-eiPxBGhHiRIIHcr-190" value="" style="rounded=1;whiteSpace=wrap;html=1;fillColor=#fff2cc;strokeColor=#d6b656;sketch=1;curveFitting=1;jiggle=2;" parent="1" vertex="1">
          <mxGeometry x="550" y="574.75" width="30" height="20" as="geometry" />
        </mxCell>
        <mxCell id="Biw7-eiPxBGhHiRIIHcr-191" value="" style="rounded=1;whiteSpace=wrap;html=1;fillColor=#fff2cc;strokeColor=#d6b656;sketch=1;curveFitting=1;jiggle=2;" parent="1" vertex="1">
          <mxGeometry x="550" y="594.75" width="30" height="20" as="geometry" />
        </mxCell>
        <mxCell id="Biw7-eiPxBGhHiRIIHcr-192" value="" style="rounded=1;whiteSpace=wrap;html=1;fillColor=#fff2cc;strokeColor=#d6b656;sketch=1;curveFitting=1;jiggle=2;" parent="1" vertex="1">
          <mxGeometry x="550" y="614.75" width="30" height="20" as="geometry" />
        </mxCell>
        <mxCell id="Biw7-eiPxBGhHiRIIHcr-193" value="" style="rounded=1;whiteSpace=wrap;html=1;fillColor=#fff2cc;strokeColor=#d6b656;sketch=1;curveFitting=1;jiggle=2;" parent="1" vertex="1">
          <mxGeometry x="550" y="634.75" width="30" height="20" as="geometry" />
        </mxCell>
        <mxCell id="Biw7-eiPxBGhHiRIIHcr-194" value="" style="rounded=1;whiteSpace=wrap;html=1;fillColor=#fff2cc;strokeColor=#d6b656;sketch=1;curveFitting=1;jiggle=2;" parent="1" vertex="1">
          <mxGeometry x="550" y="654.75" width="30" height="20" as="geometry" />
        </mxCell>
        <mxCell id="Biw7-eiPxBGhHiRIIHcr-195" style="edgeStyle=orthogonalEdgeStyle;shape=connector;rounded=0;orthogonalLoop=1;jettySize=auto;html=1;exitX=0.5;exitY=1;exitDx=0;exitDy=0;strokeColor=default;strokeWidth=2;align=center;verticalAlign=middle;fontFamily=Helvetica;fontSize=11;fontColor=default;labelBackgroundColor=default;endArrow=diamondThin;endFill=0;" parent="1" target="Biw7-eiPxBGhHiRIIHcr-196" edge="1">
          <mxGeometry relative="1" as="geometry">
            <mxPoint x="605" y="290.75" as="sourcePoint" />
          </mxGeometry>
        </mxCell>
        <mxCell id="Biw7-eiPxBGhHiRIIHcr-196" value="&lt;span style=&quot;font-family: &amp;quot;Comic Sans MS&amp;quot;;&quot;&gt;2&lt;/span&gt;" style="rounded=1;whiteSpace=wrap;html=1;fillColor=#fff2cc;strokeColor=#d6b656;sketch=1;curveFitting=1;jiggle=2;" parent="1" vertex="1">
          <mxGeometry x="590" y="354.75" width="30" height="20" as="geometry" />
        </mxCell>
        <mxCell id="Biw7-eiPxBGhHiRIIHcr-197" value="" style="rounded=1;whiteSpace=wrap;html=1;fillColor=#fff2cc;strokeColor=#d6b656;sketch=1;curveFitting=1;jiggle=2;" parent="1" vertex="1">
          <mxGeometry x="590" y="374.75" width="30" height="20" as="geometry" />
        </mxCell>
        <mxCell id="Biw7-eiPxBGhHiRIIHcr-198" value="" style="rounded=1;whiteSpace=wrap;html=1;fillColor=#fff2cc;strokeColor=#d6b656;sketch=1;curveFitting=1;jiggle=2;" parent="1" vertex="1">
          <mxGeometry x="590" y="394.75" width="30" height="20" as="geometry" />
        </mxCell>
        <mxCell id="Biw7-eiPxBGhHiRIIHcr-199" value="" style="rounded=1;whiteSpace=wrap;html=1;fillColor=#fff2cc;strokeColor=#d6b656;sketch=1;curveFitting=1;jiggle=2;" parent="1" vertex="1">
          <mxGeometry x="590" y="414.75" width="30" height="20" as="geometry" />
        </mxCell>
        <mxCell id="Biw7-eiPxBGhHiRIIHcr-200" value="" style="rounded=1;whiteSpace=wrap;html=1;fillColor=#fff2cc;strokeColor=#d6b656;sketch=1;curveFitting=1;jiggle=2;" parent="1" vertex="1">
          <mxGeometry x="590" y="434.75" width="30" height="20" as="geometry" />
        </mxCell>
        <mxCell id="Biw7-eiPxBGhHiRIIHcr-201" value="" style="rounded=1;whiteSpace=wrap;html=1;fillColor=#fff2cc;strokeColor=#d6b656;sketch=1;curveFitting=1;jiggle=2;" parent="1" vertex="1">
          <mxGeometry x="590" y="454.75" width="30" height="20" as="geometry" />
        </mxCell>
        <mxCell id="Biw7-eiPxBGhHiRIIHcr-202" value="" style="rounded=1;whiteSpace=wrap;html=1;fillColor=#fff2cc;strokeColor=#d6b656;sketch=1;curveFitting=1;jiggle=2;" parent="1" vertex="1">
          <mxGeometry x="590" y="474.75" width="30" height="20" as="geometry" />
        </mxCell>
        <mxCell id="Biw7-eiPxBGhHiRIIHcr-203" value="" style="rounded=1;whiteSpace=wrap;html=1;fillColor=#fff2cc;strokeColor=#d6b656;sketch=1;curveFitting=1;jiggle=2;" parent="1" vertex="1">
          <mxGeometry x="590" y="494.75" width="30" height="20" as="geometry" />
        </mxCell>
        <mxCell id="Biw7-eiPxBGhHiRIIHcr-204" value="" style="rounded=1;whiteSpace=wrap;html=1;fillColor=#fff2cc;strokeColor=#d6b656;sketch=1;curveFitting=1;jiggle=2;" parent="1" vertex="1">
          <mxGeometry x="590" y="514.75" width="30" height="20" as="geometry" />
        </mxCell>
        <mxCell id="Biw7-eiPxBGhHiRIIHcr-205" value="" style="rounded=1;whiteSpace=wrap;html=1;fillColor=#fff2cc;strokeColor=#d6b656;sketch=1;curveFitting=1;jiggle=2;" parent="1" vertex="1">
          <mxGeometry x="590" y="534.75" width="30" height="20" as="geometry" />
        </mxCell>
        <mxCell id="Biw7-eiPxBGhHiRIIHcr-206" value="" style="rounded=1;whiteSpace=wrap;html=1;fillColor=#fff2cc;strokeColor=#d6b656;sketch=1;curveFitting=1;jiggle=2;" parent="1" vertex="1">
          <mxGeometry x="590" y="554.75" width="30" height="20" as="geometry" />
        </mxCell>
        <mxCell id="Biw7-eiPxBGhHiRIIHcr-207" value="" style="rounded=1;whiteSpace=wrap;html=1;fillColor=#fff2cc;strokeColor=#d6b656;sketch=1;curveFitting=1;jiggle=2;" parent="1" vertex="1">
          <mxGeometry x="590" y="574.75" width="30" height="20" as="geometry" />
        </mxCell>
        <mxCell id="Biw7-eiPxBGhHiRIIHcr-208" value="" style="rounded=1;whiteSpace=wrap;html=1;fillColor=#fff2cc;strokeColor=#d6b656;sketch=1;curveFitting=1;jiggle=2;" parent="1" vertex="1">
          <mxGeometry x="590" y="594.75" width="30" height="20" as="geometry" />
        </mxCell>
        <mxCell id="Biw7-eiPxBGhHiRIIHcr-209" value="" style="rounded=1;whiteSpace=wrap;html=1;fillColor=#fff2cc;strokeColor=#d6b656;sketch=1;curveFitting=1;jiggle=2;" parent="1" vertex="1">
          <mxGeometry x="590" y="614.75" width="30" height="20" as="geometry" />
        </mxCell>
        <mxCell id="Biw7-eiPxBGhHiRIIHcr-210" value="" style="rounded=1;whiteSpace=wrap;html=1;fillColor=#fff2cc;strokeColor=#d6b656;sketch=1;curveFitting=1;jiggle=2;" parent="1" vertex="1">
          <mxGeometry x="590" y="634.75" width="30" height="20" as="geometry" />
        </mxCell>
        <mxCell id="Biw7-eiPxBGhHiRIIHcr-211" value="" style="rounded=1;whiteSpace=wrap;html=1;fillColor=#fff2cc;strokeColor=#d6b656;sketch=1;curveFitting=1;jiggle=2;" parent="1" vertex="1">
          <mxGeometry x="590" y="654.75" width="30" height="20" as="geometry" />
        </mxCell>
        <mxCell id="Biw7-eiPxBGhHiRIIHcr-212" style="edgeStyle=orthogonalEdgeStyle;shape=connector;rounded=0;orthogonalLoop=1;jettySize=auto;html=1;exitX=0.5;exitY=1;exitDx=0;exitDy=0;strokeColor=default;strokeWidth=2;align=center;verticalAlign=middle;fontFamily=Helvetica;fontSize=11;fontColor=default;labelBackgroundColor=default;endArrow=diamondThin;endFill=0;" parent="1" target="Biw7-eiPxBGhHiRIIHcr-213" edge="1">
          <mxGeometry relative="1" as="geometry">
            <mxPoint x="645" y="291.25" as="sourcePoint" />
          </mxGeometry>
        </mxCell>
        <mxCell id="Biw7-eiPxBGhHiRIIHcr-213" value="" style="rounded=1;whiteSpace=wrap;html=1;fillColor=#fff2cc;strokeColor=#d6b656;sketch=1;curveFitting=1;jiggle=2;" parent="1" vertex="1">
          <mxGeometry x="630" y="355.25" width="30" height="20" as="geometry" />
        </mxCell>
        <mxCell id="Biw7-eiPxBGhHiRIIHcr-214" value="" style="rounded=1;whiteSpace=wrap;html=1;fillColor=#fff2cc;strokeColor=#d6b656;sketch=1;curveFitting=1;jiggle=2;" parent="1" vertex="1">
          <mxGeometry x="630" y="375.25" width="30" height="20" as="geometry" />
        </mxCell>
        <mxCell id="Biw7-eiPxBGhHiRIIHcr-215" value="" style="rounded=1;whiteSpace=wrap;html=1;fillColor=#fff2cc;strokeColor=#d6b656;sketch=1;curveFitting=1;jiggle=2;" parent="1" vertex="1">
          <mxGeometry x="630" y="395.25" width="30" height="20" as="geometry" />
        </mxCell>
        <mxCell id="Biw7-eiPxBGhHiRIIHcr-216" value="" style="rounded=1;whiteSpace=wrap;html=1;fillColor=#fff2cc;strokeColor=#d6b656;sketch=1;curveFitting=1;jiggle=2;" parent="1" vertex="1">
          <mxGeometry x="630" y="415.25" width="30" height="20" as="geometry" />
        </mxCell>
        <mxCell id="Biw7-eiPxBGhHiRIIHcr-217" value="" style="rounded=1;whiteSpace=wrap;html=1;fillColor=#fff2cc;strokeColor=#d6b656;sketch=1;curveFitting=1;jiggle=2;" parent="1" vertex="1">
          <mxGeometry x="630" y="435.25" width="30" height="20" as="geometry" />
        </mxCell>
        <mxCell id="Biw7-eiPxBGhHiRIIHcr-218" value="" style="rounded=1;whiteSpace=wrap;html=1;fillColor=#fff2cc;strokeColor=#d6b656;sketch=1;curveFitting=1;jiggle=2;" parent="1" vertex="1">
          <mxGeometry x="630" y="455.25" width="30" height="20" as="geometry" />
        </mxCell>
        <mxCell id="Biw7-eiPxBGhHiRIIHcr-219" value="" style="rounded=1;whiteSpace=wrap;html=1;fillColor=#fff2cc;strokeColor=#d6b656;sketch=1;curveFitting=1;jiggle=2;" parent="1" vertex="1">
          <mxGeometry x="630" y="475.25" width="30" height="20" as="geometry" />
        </mxCell>
        <mxCell id="Biw7-eiPxBGhHiRIIHcr-220" value="" style="rounded=1;whiteSpace=wrap;html=1;fillColor=#fff2cc;strokeColor=#d6b656;sketch=1;curveFitting=1;jiggle=2;" parent="1" vertex="1">
          <mxGeometry x="630" y="495.25" width="30" height="20" as="geometry" />
        </mxCell>
        <mxCell id="Biw7-eiPxBGhHiRIIHcr-221" value="" style="rounded=1;whiteSpace=wrap;html=1;fillColor=#fff2cc;strokeColor=#d6b656;sketch=1;curveFitting=1;jiggle=2;" parent="1" vertex="1">
          <mxGeometry x="630" y="515.25" width="30" height="20" as="geometry" />
        </mxCell>
        <mxCell id="Biw7-eiPxBGhHiRIIHcr-222" value="" style="rounded=1;whiteSpace=wrap;html=1;fillColor=#fff2cc;strokeColor=#d6b656;sketch=1;curveFitting=1;jiggle=2;" parent="1" vertex="1">
          <mxGeometry x="630" y="535.25" width="30" height="20" as="geometry" />
        </mxCell>
        <mxCell id="Biw7-eiPxBGhHiRIIHcr-223" value="" style="rounded=1;whiteSpace=wrap;html=1;fillColor=#fff2cc;strokeColor=#d6b656;sketch=1;curveFitting=1;jiggle=2;" parent="1" vertex="1">
          <mxGeometry x="630" y="555.25" width="30" height="20" as="geometry" />
        </mxCell>
        <mxCell id="Biw7-eiPxBGhHiRIIHcr-224" value="" style="rounded=1;whiteSpace=wrap;html=1;fillColor=#fff2cc;strokeColor=#d6b656;sketch=1;curveFitting=1;jiggle=2;" parent="1" vertex="1">
          <mxGeometry x="630" y="575.25" width="30" height="20" as="geometry" />
        </mxCell>
        <mxCell id="Biw7-eiPxBGhHiRIIHcr-225" value="" style="rounded=1;whiteSpace=wrap;html=1;fillColor=#fff2cc;strokeColor=#d6b656;sketch=1;curveFitting=1;jiggle=2;" parent="1" vertex="1">
          <mxGeometry x="630" y="595.25" width="30" height="20" as="geometry" />
        </mxCell>
        <mxCell id="Biw7-eiPxBGhHiRIIHcr-226" value="" style="rounded=1;whiteSpace=wrap;html=1;fillColor=#fff2cc;strokeColor=#d6b656;sketch=1;curveFitting=1;jiggle=2;" parent="1" vertex="1">
          <mxGeometry x="630" y="615.25" width="30" height="20" as="geometry" />
        </mxCell>
        <mxCell id="Biw7-eiPxBGhHiRIIHcr-227" value="" style="rounded=1;whiteSpace=wrap;html=1;fillColor=#fff2cc;strokeColor=#d6b656;sketch=1;curveFitting=1;jiggle=2;" parent="1" vertex="1">
          <mxGeometry x="630" y="635.25" width="30" height="20" as="geometry" />
        </mxCell>
        <mxCell id="Biw7-eiPxBGhHiRIIHcr-228" value="" style="rounded=1;whiteSpace=wrap;html=1;fillColor=#fff2cc;strokeColor=#d6b656;sketch=1;curveFitting=1;jiggle=2;" parent="1" vertex="1">
          <mxGeometry x="630" y="655.25" width="30" height="20" as="geometry" />
        </mxCell>
        <mxCell id="Biw7-eiPxBGhHiRIIHcr-229" style="edgeStyle=orthogonalEdgeStyle;shape=connector;rounded=0;orthogonalLoop=1;jettySize=auto;html=1;exitX=0.5;exitY=1;exitDx=0;exitDy=0;strokeColor=default;strokeWidth=2;align=center;verticalAlign=middle;fontFamily=Helvetica;fontSize=11;fontColor=default;labelBackgroundColor=default;endArrow=diamondThin;endFill=0;" parent="1" target="Biw7-eiPxBGhHiRIIHcr-230" edge="1">
          <mxGeometry relative="1" as="geometry">
            <mxPoint x="685" y="291.25" as="sourcePoint" />
          </mxGeometry>
        </mxCell>
        <mxCell id="Biw7-eiPxBGhHiRIIHcr-230" value="" style="rounded=1;whiteSpace=wrap;html=1;fillColor=#fff2cc;strokeColor=#d6b656;sketch=1;curveFitting=1;jiggle=2;" parent="1" vertex="1">
          <mxGeometry x="670" y="355.25" width="30" height="20" as="geometry" />
        </mxCell>
        <mxCell id="Biw7-eiPxBGhHiRIIHcr-231" value="" style="rounded=1;whiteSpace=wrap;html=1;fillColor=#fff2cc;strokeColor=#d6b656;sketch=1;curveFitting=1;jiggle=2;" parent="1" vertex="1">
          <mxGeometry x="670" y="375.25" width="30" height="20" as="geometry" />
        </mxCell>
        <mxCell id="Biw7-eiPxBGhHiRIIHcr-232" value="&lt;span style=&quot;font-family: &amp;quot;Comic Sans MS&amp;quot;;&quot;&gt;2&lt;/span&gt;" style="rounded=1;whiteSpace=wrap;html=1;fillColor=#fff2cc;strokeColor=#d6b656;sketch=1;curveFitting=1;jiggle=2;" parent="1" vertex="1">
          <mxGeometry x="670" y="395.25" width="30" height="20" as="geometry" />
        </mxCell>
        <mxCell id="Biw7-eiPxBGhHiRIIHcr-233" value="" style="rounded=1;whiteSpace=wrap;html=1;fillColor=#fff2cc;strokeColor=#d6b656;sketch=1;curveFitting=1;jiggle=2;" parent="1" vertex="1">
          <mxGeometry x="670" y="415.25" width="30" height="20" as="geometry" />
        </mxCell>
        <mxCell id="Biw7-eiPxBGhHiRIIHcr-234" value="" style="rounded=1;whiteSpace=wrap;html=1;fillColor=#fff2cc;strokeColor=#d6b656;sketch=1;curveFitting=1;jiggle=2;" parent="1" vertex="1">
          <mxGeometry x="670" y="435.25" width="30" height="20" as="geometry" />
        </mxCell>
        <mxCell id="Biw7-eiPxBGhHiRIIHcr-235" value="" style="rounded=1;whiteSpace=wrap;html=1;fillColor=#fff2cc;strokeColor=#d6b656;sketch=1;curveFitting=1;jiggle=2;" parent="1" vertex="1">
          <mxGeometry x="670" y="455.25" width="30" height="20" as="geometry" />
        </mxCell>
        <mxCell id="Biw7-eiPxBGhHiRIIHcr-236" value="" style="rounded=1;whiteSpace=wrap;html=1;fillColor=#fff2cc;strokeColor=#d6b656;sketch=1;curveFitting=1;jiggle=2;" parent="1" vertex="1">
          <mxGeometry x="670" y="475.25" width="30" height="20" as="geometry" />
        </mxCell>
        <mxCell id="Biw7-eiPxBGhHiRIIHcr-237" value="" style="rounded=1;whiteSpace=wrap;html=1;fillColor=#fff2cc;strokeColor=#d6b656;sketch=1;curveFitting=1;jiggle=2;" parent="1" vertex="1">
          <mxGeometry x="670" y="495.25" width="30" height="20" as="geometry" />
        </mxCell>
        <mxCell id="Biw7-eiPxBGhHiRIIHcr-238" value="" style="rounded=1;whiteSpace=wrap;html=1;fillColor=#fff2cc;strokeColor=#d6b656;sketch=1;curveFitting=1;jiggle=2;" parent="1" vertex="1">
          <mxGeometry x="670" y="515.25" width="30" height="20" as="geometry" />
        </mxCell>
        <mxCell id="Biw7-eiPxBGhHiRIIHcr-239" value="" style="rounded=1;whiteSpace=wrap;html=1;fillColor=#fff2cc;strokeColor=#d6b656;sketch=1;curveFitting=1;jiggle=2;" parent="1" vertex="1">
          <mxGeometry x="670" y="535.25" width="30" height="20" as="geometry" />
        </mxCell>
        <mxCell id="Biw7-eiPxBGhHiRIIHcr-240" value="" style="rounded=1;whiteSpace=wrap;html=1;fillColor=#fff2cc;strokeColor=#d6b656;sketch=1;curveFitting=1;jiggle=2;" parent="1" vertex="1">
          <mxGeometry x="670" y="555.25" width="30" height="20" as="geometry" />
        </mxCell>
        <mxCell id="Biw7-eiPxBGhHiRIIHcr-241" value="" style="rounded=1;whiteSpace=wrap;html=1;fillColor=#fff2cc;strokeColor=#d6b656;sketch=1;curveFitting=1;jiggle=2;" parent="1" vertex="1">
          <mxGeometry x="670" y="575.25" width="30" height="20" as="geometry" />
        </mxCell>
        <mxCell id="Biw7-eiPxBGhHiRIIHcr-242" value="" style="rounded=1;whiteSpace=wrap;html=1;fillColor=#fff2cc;strokeColor=#d6b656;sketch=1;curveFitting=1;jiggle=2;" parent="1" vertex="1">
          <mxGeometry x="670" y="595.25" width="30" height="20" as="geometry" />
        </mxCell>
        <mxCell id="Biw7-eiPxBGhHiRIIHcr-243" value="" style="rounded=1;whiteSpace=wrap;html=1;fillColor=#fff2cc;strokeColor=#d6b656;sketch=1;curveFitting=1;jiggle=2;" parent="1" vertex="1">
          <mxGeometry x="670" y="615.25" width="30" height="20" as="geometry" />
        </mxCell>
        <mxCell id="Biw7-eiPxBGhHiRIIHcr-244" value="" style="rounded=1;whiteSpace=wrap;html=1;fillColor=#fff2cc;strokeColor=#d6b656;sketch=1;curveFitting=1;jiggle=2;" parent="1" vertex="1">
          <mxGeometry x="670" y="635.25" width="30" height="20" as="geometry" />
        </mxCell>
        <mxCell id="Biw7-eiPxBGhHiRIIHcr-245" value="" style="rounded=1;whiteSpace=wrap;html=1;fillColor=#fff2cc;strokeColor=#d6b656;sketch=1;curveFitting=1;jiggle=2;" parent="1" vertex="1">
          <mxGeometry x="670" y="655.25" width="30" height="20" as="geometry" />
        </mxCell>
        <mxCell id="Biw7-eiPxBGhHiRIIHcr-246" value="&lt;font face=&quot;Comic Sans MS&quot;&gt;&lt;span style=&quot;font-size: 18px;&quot;&gt;long[] table:&amp;nbsp;&lt;/span&gt;&lt;/font&gt;" style="text;html=1;strokeColor=none;fillColor=none;align=center;verticalAlign=middle;whiteSpace=wrap;rounded=0;fontFamily=Helvetica;fontSize=11;fontColor=default;labelBackgroundColor=default;" parent="1" vertex="1">
          <mxGeometry x="270" y="255" width="120" height="30" as="geometry" />
        </mxCell>
        <mxCell id="Biw7-eiPxBGhHiRIIHcr-249" style="shape=connector;rounded=0;orthogonalLoop=1;jettySize=auto;html=1;exitX=1;exitY=0;exitDx=0;exitDy=0;strokeColor=default;strokeWidth=2;align=center;verticalAlign=middle;fontFamily=Helvetica;fontSize=11;fontColor=default;labelBackgroundColor=default;endArrow=open;endFill=0;" parent="1" source="Biw7-eiPxBGhHiRIIHcr-247" edge="1">
          <mxGeometry relative="1" as="geometry">
            <mxPoint x="380" y="395.5" as="targetPoint" />
          </mxGeometry>
        </mxCell>
        <mxCell id="Biw7-eiPxBGhHiRIIHcr-247" value="&lt;font style=&quot;font-size: 16px;&quot; face=&quot;Comic Sans MS&quot;&gt;每个元素&lt;/font&gt;&lt;div&gt;&lt;font style=&quot;font-size: 16px;&quot; face=&quot;Comic Sans MS&quot;&gt;16 个计数器&lt;/font&gt;&lt;/div&gt;&lt;div&gt;&lt;font style=&quot;font-size: 16px;&quot; face=&quot;Comic Sans MS&quot;&gt;由低位到高位&lt;/font&gt;&lt;/div&gt;" style="text;html=1;strokeColor=none;fillColor=none;align=center;verticalAlign=middle;whiteSpace=wrap;rounded=0;fontFamily=Helvetica;fontSize=11;fontColor=default;labelBackgroundColor=default;" parent="1" vertex="1">
          <mxGeometry x="220" y="425.25" width="120" height="30" as="geometry" />
        </mxCell>
        <mxCell id="Biw7-eiPxBGhHiRIIHcr-257" style="edgeStyle=none;shape=connector;rounded=0;orthogonalLoop=1;jettySize=auto;html=1;exitX=0;exitY=1;exitDx=0;exitDy=0;strokeColor=default;strokeWidth=2;align=center;verticalAlign=middle;fontFamily=Helvetica;fontSize=11;fontColor=default;labelBackgroundColor=default;endArrow=open;endFill=0;entryX=0.5;entryY=0;entryDx=0;entryDy=0;" parent="1" source="Biw7-eiPxBGhHiRIIHcr-254" target="Biw7-eiPxBGhHiRIIHcr-30" edge="1">
          <mxGeometry relative="1" as="geometry">
            <mxPoint x="450" y="240" as="targetPoint" />
          </mxGeometry>
        </mxCell>
        <mxCell id="Biw7-eiPxBGhHiRIIHcr-261" value="&lt;font face=&quot;Comic Sans MS&quot;&gt;&lt;b&gt;hash(0)&lt;/b&gt;&lt;/font&gt;" style="edgeLabel;html=1;align=center;verticalAlign=middle;resizable=0;points=[];fontFamily=Helvetica;fontSize=11;fontColor=default;labelBackgroundColor=default;" parent="Biw7-eiPxBGhHiRIIHcr-257" vertex="1" connectable="0">
          <mxGeometry x="-0.3649" y="-3" relative="1" as="geometry">
            <mxPoint x="-30" as="offset" />
          </mxGeometry>
        </mxCell>
        <mxCell id="Biw7-eiPxBGhHiRIIHcr-258" style="edgeStyle=none;shape=connector;rounded=0;orthogonalLoop=1;jettySize=auto;html=1;exitX=0.5;exitY=1;exitDx=0;exitDy=0;entryX=0.5;entryY=0;entryDx=0;entryDy=0;strokeColor=default;strokeWidth=2;align=center;verticalAlign=middle;fontFamily=Helvetica;fontSize=11;fontColor=default;labelBackgroundColor=default;endArrow=open;endFill=0;" parent="1" source="Biw7-eiPxBGhHiRIIHcr-254" target="Biw7-eiPxBGhHiRIIHcr-31" edge="1">
          <mxGeometry relative="1" as="geometry" />
        </mxCell>
        <mxCell id="Biw7-eiPxBGhHiRIIHcr-259" style="edgeStyle=none;shape=connector;rounded=0;orthogonalLoop=1;jettySize=auto;html=1;exitX=0.75;exitY=1;exitDx=0;exitDy=0;entryX=0.5;entryY=0;entryDx=0;entryDy=0;strokeColor=default;strokeWidth=2;align=center;verticalAlign=middle;fontFamily=Helvetica;fontSize=11;fontColor=default;labelBackgroundColor=default;endArrow=open;endFill=0;" parent="1" source="Biw7-eiPxBGhHiRIIHcr-254" target="Biw7-eiPxBGhHiRIIHcr-175" edge="1">
          <mxGeometry relative="1" as="geometry" />
        </mxCell>
        <mxCell id="Biw7-eiPxBGhHiRIIHcr-260" style="edgeStyle=none;shape=connector;rounded=0;orthogonalLoop=1;jettySize=auto;html=1;exitX=1;exitY=1;exitDx=0;exitDy=0;entryX=0.5;entryY=0;entryDx=0;entryDy=0;strokeColor=default;strokeWidth=2;align=center;verticalAlign=middle;fontFamily=Helvetica;fontSize=11;fontColor=default;labelBackgroundColor=default;endArrow=open;endFill=0;" parent="1" source="Biw7-eiPxBGhHiRIIHcr-254" target="Biw7-eiPxBGhHiRIIHcr-176" edge="1">
          <mxGeometry relative="1" as="geometry" />
        </mxCell>
        <mxCell id="Biw7-eiPxBGhHiRIIHcr-254" value="&lt;b style=&quot;border-color: var(--border-color); font-size: 18px;&quot;&gt;&lt;font face=&quot;Comic Sans MS&quot;&gt;e&lt;/font&gt;&lt;/b&gt;" style="rounded=1;whiteSpace=wrap;html=1;fillColor=#f8cecc;strokeColor=#b85450;sketch=1;curveFitting=1;jiggle=2;fontFamily=Helvetica;fontSize=11;fontColor=default;labelBackgroundColor=none;" parent="1" vertex="1">
          <mxGeometry x="500" y="130" width="40" height="40" as="geometry" />
        </mxCell>
        <mxCell id="Biw7-eiPxBGhHiRIIHcr-262" value="&lt;font face=&quot;Comic Sans MS&quot;&gt;&lt;b&gt;hash(1)&lt;/b&gt;&lt;/font&gt;" style="edgeLabel;html=1;align=center;verticalAlign=middle;resizable=0;points=[];fontFamily=Helvetica;fontSize=11;fontColor=default;labelBackgroundColor=default;" parent="1" vertex="1" connectable="0">
          <mxGeometry x="465.0021749533254" y="204.0105215663591" as="geometry">
            <mxPoint x="42" y="14" as="offset" />
          </mxGeometry>
        </mxCell>
        <mxCell id="Biw7-eiPxBGhHiRIIHcr-263" value="&lt;font face=&quot;Comic Sans MS&quot;&gt;&lt;b&gt;hash(2)&lt;/b&gt;&lt;/font&gt;" style="edgeLabel;html=1;align=center;verticalAlign=middle;resizable=0;points=[];fontFamily=Helvetica;fontSize=11;fontColor=default;labelBackgroundColor=default;" parent="1" vertex="1" connectable="0">
          <mxGeometry x="525.0021749533254" y="204.0105215663591" as="geometry">
            <mxPoint x="42" y="14" as="offset" />
          </mxGeometry>
        </mxCell>
        <mxCell id="Biw7-eiPxBGhHiRIIHcr-264" value="&lt;font face=&quot;Comic Sans MS&quot;&gt;&lt;b&gt;hash(3)&lt;/b&gt;&lt;/font&gt;" style="edgeLabel;html=1;align=center;verticalAlign=middle;resizable=0;points=[];fontFamily=Helvetica;fontSize=11;fontColor=default;labelBackgroundColor=default;" parent="1" vertex="1" connectable="0">
          <mxGeometry x="590.0021749533254" y="190.0005215663591" as="geometry">
            <mxPoint x="42" y="14" as="offset" />
          </mxGeometry>
        </mxCell>
        <mxCell id="Biw7-eiPxBGhHiRIIHcr-266" value="&lt;font face=&quot;Comic Sans MS&quot;&gt;&lt;span style=&quot;font-size: 16px;&quot;&gt;计算元素 e 的频率&lt;/span&gt;&lt;/font&gt;" style="text;html=1;strokeColor=none;fillColor=none;align=center;verticalAlign=middle;whiteSpace=wrap;rounded=0;fontFamily=Helvetica;fontSize=11;fontColor=default;labelBackgroundColor=default;" parent="1" vertex="1">
          <mxGeometry x="240" y="130" width="150" height="30" as="geometry" />
        </mxCell>
      </root>
    </mxGraphModel>
  </diagram>
</mxfile>
